<?xml version="1.0" encoding="UTF-8"?>
<svg id="Layer_2" data-name="Layer 2" xmlns="http://www.w3.org/2000/svg" xmlns:xlink="http://www.w3.org/1999/xlink" viewBox="0 0 33.89 55.07">
  <defs>
    <style>
      .cls-1 {
        stroke: url(#linear-gradient);
      }

      .cls-1, .cls-2 {
        fill: none;
        stroke-linecap: round;
        stroke-miterlimit: 10;
        stroke-width: 4.5px;
      }

      .cls-2 {
        stroke: url(#linear-gradient-2);
      }
    </style>
    <linearGradient id="linear-gradient" x1="15.65" y1="8.98" x2="15.65" y2="55.07" gradientUnits="userSpaceOnUse">
      <stop offset=".15" stop-color="#5b17bc"/>
      <stop offset=".17" stop-color="#6120c0"/>
      <stop offset=".27" stop-color="#7a46d3"/>
      <stop offset=".37" stop-color="#8e64e2"/>
      <stop offset=".47" stop-color="#9d79ed"/>
      <stop offset=".57" stop-color="#a686f3"/>
      <stop offset=".66" stop-color="#a98bf6"/>
    </linearGradient>
    <linearGradient id="linear-gradient-2" x1="-33.46" y1="22.31" x2="-33.46" y2="-23.8" gradientTransform="translate(-15.32 22.31) rotate(-180)" gradientUnits="userSpaceOnUse">
      <stop offset=".4" stop-color="#5b17bc"/>
      <stop offset=".48" stop-color="#5e1bbe"/>
      <stop offset=".58" stop-color="#672ac5"/>
      <stop offset=".69" stop-color="#7741d1"/>
      <stop offset=".8" stop-color="#8d62e1"/>
      <stop offset=".91" stop-color="#a98bf6"/>
    </linearGradient>
  </defs>
  <g id="Layer_1-2" data-name="Layer 1">
    <path class="cls-1" d="M2.25,47.46c6.24,4.82,11.09,5.84,14.76,5.18,6.86-1.25,11.77-6.8,12.04-14.46,0-9.44-8.67-12.85-13.3-16.75-1.17-.99-2.01-2.35-2.18-3.87-.19-1.68.36-3.31,1.69-4.64,4.02-3.71,8.14-.35,10.5,1.16"/>
    <path class="cls-2" d="M31.64,7.37c-6.24-4.82-11.29-5.58-14.95-4.91-6.86,1.25-11.77,6.8-12.04,14.46,0,9.44,8.67,12.85,13.3,16.75,1.17.99,2.01,2.35,2.18,3.87.19,1.68-.36,3.31-1.69,4.64-4.02,3.71-8.14.35-10.5-1.16"/>
  </g>
</svg>